<?xml version="1.0" encoding="utf-8"?>
<!-- Generator: Adobe Illustrator 16.0.3, SVG Export Plug-In . SVG Version: 6.00 Build 0)  -->
<!DOCTYPE svg PUBLIC "-//W3C//DTD SVG 1.1//EN" "http://www.w3.org/Graphics/SVG/1.1/DTD/svg11.dtd">
<svg version="1.1"
	 id="svg3877" xmlns:rdf="http://www.w3.org/1999/02/22-rdf-syntax-ns#" xmlns:dc="http://purl.org/dc/elements/1.1/" xmlns:cc="http://creativecommons.org/ns#" xmlns:svg="http://www.w3.org/2000/svg"
	 xmlns="http://www.w3.org/2000/svg" xmlns:xlink="http://www.w3.org/1999/xlink" x="0px" y="0px" width="782.093px"
	 height="314.859px" viewBox="0 0 782.093 314.859" enable-background="new 0 0 782.093 314.859" xml:space="preserve">
<g id="g376">
	<g id="g382" transform="translate(389.553,287.037)">
		<g>
			<path id="path384_8_" fill="#FF6600" d="M342.267-98.491c0-14.842,11.779-24.857,25.137-24.857
				c13.369,0,25.137,10.016,25.137,24.857c0,14.844-11.768,24.869-25.137,24.869C354.046-73.621,342.267-83.647,342.267-98.491
				 M367.532-101.298c4.281,0,5.488-2.285,5.488-4.282c0-2.402-1.207-4.271-5.488-4.271h-5.457v8.554H367.532z M362.075-97.432
				v13.646h-4.42v-30.08h10.955c6.406,0,9.365,2.808,9.365,8.285c0,3.354-2.285,6.033-5.211,6.418v0.128
				c2.52,0.405,3.459,2.69,4.004,6.834c0.406,2.659,0.928,7.347,1.879,8.415h-5.221c-1.207-2.809-1.068-6.813-2.008-10.156
				c-0.791-2.541-2.137-3.49-5.072-3.49H362.075z M387.724-98.491c0-12.033-8.543-20.854-20.32-20.854
				c-11.768,0-20.32,8.82-20.32,20.854c0,12.035,8.553,20.844,20.32,20.844C379.181-77.647,387.724-86.455,387.724-98.491"/>
		</g>
	</g>
	<g id="g386" transform="translate(381.397,285.1135)">
		<g>
			<path id="path388_8_" fill="#FF6600" d="M263.333-76.028l-28.979-32.503L205.64-76.028h-60.404l59.049-66.363l-59.049-66.364
				h62.295l29.258,32.237l28.168-32.237h60.139l-58.771,66.097l59.572,66.63H263.333z"/>
		</g>
	</g>
	<g id="g390" transform="translate(359.4679,285.1135)">
		<g>
			<path id="path392_8_" fill="#FF6600" d="M51.104-76.028v-209.075h116.049v46.599h-66.887v29.749h66.887v44.848h-66.887v41.153
				h66.887v46.727H51.104z"/>
		</g>
	</g>
	<g id="g394" transform="translate(352.1007,288.0945)">
		<path id="path396" fill="#412C91" d="M-20.196-110.839c-18.046,0-29.268-16.818-29.268-34.373c0-18.761,9.77-36.807,29.268-36.807
			c20.225,0,28.286,18.046,28.286,36.807C8.09-127.411-0.452-110.839-20.196-110.839 M-194.151-166.28
			c3.086-13.262,13.39-21.954,26.247-21.954c14.159,0,23.929,8.425,26.502,21.954H-194.151z M9.51-288.095v85.573H8.976
			c-10.839-12.461-24.378-16.796-40.086-16.796c-32.194,0-56.433,21.89-64.943,50.817c-9.706-31.874-34.735-51.415-71.852-51.415
			c-30.144,0-53.935,13.529-66.364,35.579v-27.4h-62.295v-29.749h67.987v-46.609h-123.523v209.085h55.536v-87.89h55.355
			c-1.655,6.46-2.542,13.379-2.542,20.662c0,43.62,33.326,74.222,75.846,74.222c35.76,0,59.327-16.785,71.777-47.389h-47.581
			c-6.45,9.193-11.33,11.928-24.196,11.928c-14.928,0-27.795-13.017-27.795-28.468h96.914c4.207,34.649,31.19,64.527,68.211,64.527
			c15.975,0,30.614-7.858,39.552-21.132H9.51v13.539h48.959v-209.085H9.51z"/>
	</g>
	<g id="g398" transform="translate(362.3016,275.7312)">
		<path id="path400" fill="#412C91" d="M78.528,33.54c6.322,0,11.275-0.93,16.156-2.596V6.641H76.36V1.057h25.146v33.934
			c-7.857,2.479-13.967,4.133-23.182,4.133c-22.766,0-35.279-17.586-35.279-38.686c0-21.122,9.834-38.709,32.59-38.709
			c12.311,0,22.252,6.525,24.932,18.004h-7.441c-1.549-7.967-9.729-12.408-17.277-12.408c-18.74,0-25.66,17.063-25.66,33.113
			C50.188,16.475,59.799,33.54,78.528,33.54"/>
	</g>
	<g id="g402" transform="translate(367.6401,279.7723)">
		<path id="path404" fill="#412C91" d="M130.193-13.654c-10.441,0-14.063,8.799-14.063,17.908v29.6h-6.311V-3.081
			c0-5.083-0.105-10.262-0.309-15.42h6.193l0.426,7.539c3.098-6.001,8.266-8.787,15.205-8.787c0.93,0,1.965,0.105,2.895,0.202v6.321
			C132.789-13.439,131.647-13.654,130.193-13.654"/>
	</g>
	<g id="g406" transform="translate(370.542,275.6539)">
		<path id="path408" fill="#412C91" d="M158.278,34.441c12.516,0,17.801-11.371,17.801-22.658c0-11.275-5.285-22.658-17.801-22.658
			c-12.523,0-17.799,11.383-17.799,22.658C140.479,23.07,145.754,34.441,158.278,34.441 M158.278,39.193
			c-15.941,0-24.516-12.301-24.516-27.41c0-15.099,8.574-27.421,24.516-27.421c15.922,0,24.518,12.322,24.518,27.421
			C182.795,26.892,174.2,39.193,158.278,39.193"/>
	</g>
	<g id="g410" transform="translate(377.363,275.3232)">
		<path id="path412" fill="#412C91" d="M224.293,38.303l-0.203-7.869c-3.619,6.098-9.322,9.098-16.967,9.098
			c-13.967,0-18.633-7.656-18.633-20.801v-32.793h6.311v30.326c0,9.717,2.285,18.004,13.348,18.004
			c11.809,0,15.738-10.455,15.738-20.813v-27.518h6.322v36.723c0,5.189,0.086,10.465,0.299,15.643H224.293z"/>
	</g>
	<g id="g414" transform="translate(379.8265,280.227)">
		<path id="path416" fill="#412C91" d="M248.134-18.962l0.203,7.869c3.619-6.107,9.311-9.119,16.967-9.119
			c13.967,0,18.623,7.666,18.623,20.801v32.813h-6.301V3.077c0-9.717-2.283-18.014-13.346-18.014
			c-11.811,0-15.73,10.464-15.73,20.801v27.538h-6.32V-3.341c0-5.179-0.096-10.453-0.311-15.621H248.134z"/>
	</g>
	<g id="g418" transform="translate(384.9781,277.7759)">
		<path id="path420" fill="#412C91" d="M297.992,9.661c0,11.19,4.645,22.156,17.063,22.156c11.703,0,15.932-9.631,15.932-22.156
			c0-12.504-4.229-22.146-15.932-22.146C302.637-12.485,297.992-1.509,297.992,9.661 M330.986-39.073h6.322v59.284
			c0,5.189,0,10.464,0.299,15.644h-6.205l-0.191-7.87c-3.939,6.193-9.119,9.099-16.871,9.099c-16.145,0-23.086-13.338-23.086-27.422
			c0-14.063,6.941-27.422,23.086-27.422c7.229,0,12.932,2.799,16.646,8.799V-39.073z"/>
	</g>
</g>
</svg>
